<svg data-v-423bf9ae="" xmlns="http://www.w3.org/2000/svg" viewBox="0 0 641.8989833181099 60" class="font"><!----><!----><defs data-v-423bf9ae=""><linearGradient data-v-423bf9ae="" gradientTransform="rotate(25)" id="7cc61003-cdaf-4b6e-a8a7-c07d6ddf15c8" x1="0%" y1="0%" x2="100%" y2="0%"><stop data-v-423bf9ae="" offset="0%" style="stop-color: rgb(9, 120, 166); stop-opacity: 1;"></stop><stop data-v-423bf9ae="" offset="100%" style="stop-color: rgb(251, 148, 71); stop-opacity: 1;"></stop></linearGradient></defs><g data-v-423bf9ae="" id="55acd4af-f4ef-476f-b593-36990df007e7" fill="url(#7cc61003-cdaf-4b6e-a8a7-c07d6ddf15c8)" transform="matrix(13.78254318014555,0,0,13.78254318014555,0.1378216968331003,-74.28790518556073)"><path d="M2.09 7.54L2.09 7.54L2.09 7.54Q2.18 7.39 2.27 7.39L2.27 7.39L2.27 7.39Q2.35 7.40 2.41 7.54L2.41 7.54L2.41 7.54Q2.49 7.70 2.57 7.85L2.57 7.85L2.57 7.85Q2.65 8.00 2.72 8.17L2.72 8.17L2.81 8.38L2.81 8.38Q2.89 8.57 3.03 8.54L3.03 8.54L3.03 8.54Q3.04 8.54 3.08 8.53L3.08 8.53L3.08 8.53Q3.19 8.50 3.21 8.31L3.21 8.31L3.21 8.31Q3.23 8.26 3.23 8.20L3.23 8.20L3.23 8.20Q3.24 8.14 3.25 8.08L3.25 8.08L3.25 8.08Q3.27 7.97 3.29 7.88L3.29 7.88L3.29 7.88Q3.31 7.78 3.34 7.70L3.34 7.70L3.34 7.70Q3.36 7.64 3.40 7.55L3.40 7.55L3.40 7.55Q3.44 7.46 3.49 7.35L3.49 7.35L3.49 7.35Q3.64 7.02 3.75 6.68L3.75 6.68L3.75 6.68Q3.86 6.34 3.96 5.99L3.96 5.99L4.03 5.73L4.03 5.73Q4.08 5.54 4.14 5.48L4.14 5.48L4.14 5.48Q4.25 5.37 4.42 5.46L4.42 5.46L4.42 5.46Q4.55 5.54 4.48 5.74L4.48 5.74L4.48 5.74Q4.38 6.06 4.24 6.34L4.24 6.34L4.24 6.34Q4.20 6.42 4.18 6.51L4.18 6.51L4.18 6.51Q4.16 6.57 4.15 6.63L4.15 6.63L4.15 6.63Q4.13 6.69 4.11 6.75L4.11 6.75L4.11 6.75Q4.07 6.87 4.05 6.97L4.05 6.97L4.05 6.97Q4.03 7.06 4.01 7.14L4.01 7.14L4.01 7.14Q3.98 7.27 3.96 7.37L3.96 7.37L3.96 7.37Q3.94 7.46 3.92 7.51L3.92 7.51L3.92 7.51Q3.83 7.84 3.73 8.15L3.73 8.15L3.73 8.15Q3.62 8.46 3.50 8.76L3.50 8.76L3.50 8.76Q3.45 8.87 3.43 9.00L3.43 9.00L3.43 9.00Q3.40 9.12 3.38 9.23L3.38 9.23L3.38 9.23Q3.32 9.53 3.21 9.63L3.21 9.63L3.21 9.63Q3.13 9.68 3.04 9.68L3.04 9.68L3.04 9.68Q2.96 9.68 2.90 9.64L2.90 9.64L2.90 9.64Q2.83 9.60 2.78 9.53L2.78 9.53L2.78 9.53Q2.73 9.46 2.70 9.39L2.70 9.39L2.70 9.39Q2.67 9.31 2.65 9.24L2.65 9.24L2.65 9.24Q2.61 9.13 2.58 9.02L2.58 9.02L2.58 9.02Q2.56 8.91 2.52 8.79L2.52 8.79L2.52 8.79Q2.42 8.52 2.24 8.52L2.24 8.52L2.24 8.52Q2.06 8.52 1.98 8.70L1.98 8.70L1.98 8.70Q1.93 8.78 1.89 8.86L1.89 8.86L1.89 8.86Q1.86 8.93 1.84 8.99L1.84 8.99L1.84 8.99Q1.80 9.07 1.78 9.16L1.78 9.16L1.78 9.16Q1.76 9.24 1.74 9.32L1.74 9.32L1.74 9.33L1.74 9.33Q1.67 9.57 1.61 9.63L1.61 9.63L1.61 9.63Q1.56 9.67 1.41 9.67L1.41 9.67L1.41 9.67Q1.24 9.67 1.18 9.37L1.18 9.37L1.18 9.37Q1.16 9.28 1.14 9.22L1.14 9.22L1.14 9.22Q1.11 9.15 1.10 9.10L1.10 9.10L1.10 9.10Q0.94 8.75 0.83 8.39L0.83 8.39L0.83 8.39Q0.71 8.03 0.61 7.66L0.61 7.66L0.61 7.66Q0.54 7.44 0.48 7.21L0.48 7.21L0.48 7.21Q0.42 6.99 0.33 6.76L0.33 6.76L0.33 6.76Q0.28 6.61 0.23 6.47L0.23 6.47L0.23 6.47Q0.17 6.32 0.13 6.18L0.13 6.18L0.13 6.18Q0.10 6.10 0.07 6.01L0.07 6.01L0.07 6.01Q0.04 5.91 0.02 5.82L0.02 5.82L0.02 5.82Q-0.01 5.71-0.01 5.62L-0.01 5.62L-0.01 5.62Q0.01 5.43 0.18 5.42L0.18 5.42L0.18 5.42Q0.35 5.41 0.40 5.61L0.40 5.61L0.40 5.61Q0.45 5.78 0.49 5.94L0.49 5.94L0.49 5.94Q0.53 6.10 0.60 6.27L0.60 6.27L0.60 6.27Q0.69 6.50 0.79 6.72L0.79 6.72L0.79 6.72Q0.89 6.93 0.95 7.17L0.95 7.17L0.95 7.17Q0.98 7.28 1.02 7.38L1.02 7.38L1.02 7.38Q1.05 7.48 1.09 7.58L1.09 7.58L1.09 7.58Q1.16 7.75 1.18 7.88L1.18 7.88L1.18 7.88Q1.20 7.98 1.22 8.09L1.22 8.09L1.22 8.09Q1.24 8.20 1.26 8.29L1.26 8.29L1.26 8.29Q1.33 8.54 1.48 8.55L1.48 8.55L1.48 8.55Q1.63 8.58 1.76 8.32L1.76 8.32L1.76 8.32Q1.81 8.22 1.86 8.13L1.86 8.13L1.86 8.13Q1.91 8.03 1.97 7.93L1.97 7.93L1.97 7.93Q2.02 7.84 2.07 7.63L2.07 7.63L2.07 7.63Q2.07 7.61 2.08 7.58L2.08 7.58L2.08 7.58Q2.08 7.56 2.09 7.54ZM6.47 9.70L6.47 9.70L6.47 9.70Q6.25 9.67 6.25 9.44L6.25 9.44L6.25 9.44Q6.24 9.07 6.24 8.72L6.24 8.72L6.24 8.72Q6.24 8.36 6.24 7.99L6.24 7.99L6.24 7.99Q6.24 7.79 6.26 7.58L6.26 7.58L6.26 7.58Q6.28 7.43 6.28 7.30L6.28 7.30L6.28 7.30Q6.28 7.17 6.27 7.06L6.27 7.06L6.27 7.06Q6.26 6.99 6.25 6.90L6.25 6.90L6.25 6.90Q6.25 6.80 6.24 6.67L6.24 6.67L6.24 6.67Q6.24 6.60 6.24 6.51L6.24 6.51L6.24 6.51Q6.25 6.41 6.25 6.28L6.25 6.28L6.25 6.28Q6.26 6.19 6.27 6.11L6.27 6.11L6.27 6.11Q6.27 6.04 6.27 5.99L6.27 5.99L6.27 5.84L6.27 5.83L6.27 5.78L6.27 5.78Q6.25 5.61 6.28 5.54L6.28 5.54L6.28 5.54Q6.30 5.49 6.36 5.44L6.36 5.44L6.36 5.44Q6.63 5.30 6.69 5.61L6.69 5.61L6.69 5.61Q6.75 5.84 6.76 6.07L6.76 6.07L6.76 6.07Q6.77 6.29 6.75 6.51L6.75 6.51L6.75 6.51L6.75 6.51Q6.73 6.73 6.74 6.94L6.74 6.94L6.74 6.94Q6.75 7.15 6.73 7.36L6.73 7.36L6.73 7.36Q6.71 7.55 6.69 7.68L6.69 7.68L6.69 7.68Q6.68 7.82 6.67 7.92L6.67 7.92L6.67 7.92Q6.66 8.05 6.66 8.20L6.66 8.20L6.66 8.20Q6.66 8.35 6.67 8.51L6.67 8.51L6.67 8.51Q6.67 8.54 6.67 8.59L6.67 8.59L6.67 8.59Q6.67 8.63 6.67 8.70L6.67 8.70L6.67 8.70Q6.67 8.80 6.67 8.91L6.67 8.91L6.67 8.91Q6.67 9.02 6.68 9.13L6.68 9.13L6.68 9.13Q6.68 9.20 6.68 9.27L6.68 9.27L6.68 9.27Q6.69 9.33 6.68 9.40L6.68 9.40L6.68 9.40Q6.68 9.54 6.67 9.55L6.67 9.55L6.67 9.55Q6.64 9.68 6.47 9.70ZM11.87 5.75L11.87 5.75L11.87 5.75Q11.78 5.86 11.56 5.84L11.56 5.84L11.22 5.82L11.22 5.82Q11.12 5.82 11.02 5.81L11.02 5.81L11.02 5.81Q10.92 5.80 10.82 5.80L10.82 5.80L10.82 5.80Q10.62 5.80 10.52 5.89L10.52 5.89L10.52 5.89Q10.45 5.98 10.45 6.19L10.45 6.19L10.45 6.19Q10.45 6.28 10.46 6.37L10.46 6.37L10.46 6.37Q10.47 6.47 10.47 6.56L10.47 6.56L10.47 6.56Q10.47 6.79 10.48 6.96L10.48 6.96L10.48 6.96Q10.48 7.12 10.48 7.24L10.48 7.24L10.48 7.24Q10.48 7.59 10.44 7.94L10.44 7.94L10.44 7.94Q10.42 8.10 10.44 8.26L10.44 8.26L10.44 8.26Q10.46 8.43 10.47 8.59L10.47 8.59L10.47 8.59Q10.47 8.76 10.48 8.89L10.48 8.89L10.48 8.89Q10.48 9.02 10.48 9.11L10.48 9.11L10.48 9.11Q10.48 9.15 10.48 9.20L10.48 9.20L10.48 9.20Q10.48 9.26 10.47 9.35L10.47 9.35L10.47 9.35Q10.46 9.54 10.45 9.58L10.45 9.58L10.45 9.58Q10.36 9.73 10.21 9.69L10.21 9.69L10.21 9.69Q10.04 9.65 10.04 9.43L10.04 9.43L10.04 9.43Q10.03 9.22 10.05 9.01L10.05 9.01L10.05 9.01Q10.06 8.80 10.08 8.60L10.08 8.60L10.08 8.60Q10.10 8.36 10.07 8.11L10.07 8.11L10.07 8.11Q10.05 7.87 10.05 7.62L10.05 7.62L10.05 7.62Q10.05 7.40 10.07 7.17L10.07 7.17L10.07 7.17Q10.08 6.94 10.09 6.71L10.09 6.71L10.09 6.71Q10.09 6.27 9.95 6.08L9.95 6.08L9.95 6.08Q9.87 5.99 9.77 5.94L9.77 5.94L9.77 5.94Q9.66 5.89 9.53 5.87L9.53 5.87L9.53 5.87Q9.40 5.86 9.29 5.85L9.29 5.85L9.29 5.85Q9.17 5.84 9.06 5.84L9.06 5.84L9.06 5.84Q8.98 5.84 8.86 5.84L8.86 5.84L8.86 5.84Q8.73 5.84 8.66 5.80L8.66 5.80L8.66 5.80Q8.61 5.77 8.59 5.67L8.59 5.67L8.59 5.67Q8.58 5.59 8.61 5.54L8.61 5.54L8.61 5.54Q8.66 5.46 8.85 5.43L8.85 5.43L8.85 5.43Q8.87 5.43 8.93 5.43L8.93 5.43L8.93 5.43Q9.21 5.42 9.48 5.45L9.48 5.45L9.48 5.45Q9.75 5.48 10.04 5.46L10.04 5.46L10.04 5.46Q10.16 5.46 10.27 5.44L10.27 5.44L10.27 5.44Q10.38 5.43 10.51 5.43L10.51 5.43L10.51 5.43Q10.73 5.43 10.96 5.43L10.96 5.43L10.96 5.43Q11.19 5.43 11.42 5.42L11.42 5.42L11.42 5.42Q11.53 5.42 11.62 5.43L11.62 5.43L11.62 5.43Q11.70 5.43 11.76 5.46L11.76 5.46L11.76 5.46Q11.98 5.61 11.87 5.75ZM13.98 9.56L13.98 9.56L13.98 9.56Q13.95 9.68 13.77 9.70L13.77 9.70L13.77 9.70Q13.58 9.69 13.58 9.49L13.58 9.49L13.58 9.49Q13.58 8.96 13.55 8.41L13.55 8.41L13.55 8.41Q13.53 7.87 13.58 7.33L13.58 7.33L13.58 7.33L13.58 7.33Q13.58 7.17 13.59 7.02L13.59 7.02L13.59 7.02Q13.59 6.87 13.58 6.73L13.58 6.73L13.52 6.21L13.52 6.21Q13.50 5.99 13.59 5.74L13.59 5.74L13.59 5.74Q13.66 5.56 13.77 5.52L13.77 5.52L13.77 5.52Q13.87 5.50 13.97 5.62L13.97 5.62L13.97 5.62Q14.07 5.72 14.12 5.80L14.12 5.80L14.12 5.80Q14.21 5.93 14.30 6.03L14.30 6.03L14.30 6.03Q14.39 6.13 14.48 6.22L14.48 6.22L14.48 6.22Q14.55 6.31 14.63 6.37L14.63 6.37L14.63 6.37Q14.71 6.44 14.79 6.52L14.79 6.52L14.79 6.52Q14.85 6.59 14.94 6.70L14.94 6.70L14.94 6.70Q15.02 6.80 15.11 6.95L15.11 6.95L15.42 7.41L15.42 7.41Q15.45 7.46 15.49 7.52L15.49 7.52L15.49 7.52Q15.52 7.58 15.58 7.66L15.58 7.66L15.59 7.67L15.59 7.67Q15.73 7.86 15.89 8.03L15.89 8.03L15.89 8.03Q15.96 8.11 16.04 8.19L16.04 8.19L16.04 8.19Q16.11 8.26 16.19 8.33L16.19 8.33L16.19 8.33Q16.27 8.42 16.37 8.39L16.37 8.39L16.37 8.39Q16.53 8.35 16.52 8.07L16.52 8.07L16.52 8.07Q16.52 8.00 16.51 7.93L16.51 7.93L16.51 7.93Q16.50 7.85 16.50 7.78L16.50 7.78L16.50 7.78Q16.50 7.72 16.49 7.67L16.49 7.67L16.49 7.67Q16.48 7.62 16.48 7.56L16.48 7.56L16.48 7.56Q16.48 7.53 16.48 7.50L16.48 7.50L16.48 7.50Q16.47 7.46 16.47 7.42L16.47 7.42L16.47 7.42Q16.50 6.82 16.43 6.30L16.43 6.30L16.43 6.30Q16.43 6.27 16.43 6.19L16.43 6.19L16.43 6.19Q16.43 6.11 16.44 5.99L16.44 5.99L16.44 5.99Q16.45 5.84 16.48 5.67L16.48 5.67L16.48 5.67Q16.50 5.42 16.70 5.42L16.70 5.42L16.70 5.42Q16.92 5.42 16.92 5.68L16.92 5.68L16.92 5.68Q16.93 5.89 16.94 6.11L16.94 6.11L16.94 6.11Q16.95 6.32 16.95 6.54L16.95 6.54L16.95 6.54Q16.95 6.85 16.93 7.16L16.93 7.16L16.93 7.16Q16.91 7.48 16.93 7.79L16.93 7.79L16.93 7.79Q16.94 8.00 16.94 8.21L16.94 8.21L16.94 8.21Q16.93 8.42 16.93 8.62L16.93 8.62L16.93 8.62Q16.93 8.74 16.93 8.85L16.93 8.85L16.93 8.85Q16.93 8.96 16.93 9.06L16.93 9.06L16.93 9.34L16.93 9.34Q16.93 9.38 16.92 9.42L16.92 9.42L16.92 9.42Q16.92 9.46 16.92 9.50L16.92 9.50L16.92 9.50Q16.91 9.50 16.91 9.51L16.91 9.51L16.91 9.51Q16.91 9.52 16.91 9.52L16.91 9.52L16.91 9.52Q16.83 9.62 16.67 9.62L16.67 9.62L16.67 9.62Q16.49 9.63 16.39 9.50L16.39 9.50L16.39 9.50Q16.29 9.37 16.20 9.22L16.20 9.22L16.20 9.22Q16.12 9.07 16.02 8.93L16.02 8.93L16.02 8.93Q15.89 8.76 15.75 8.58L15.75 8.58L15.75 8.58Q15.60 8.39 15.42 8.18L15.42 8.18L15.42 8.18Q15.35 8.10 15.23 7.90L15.23 7.90L14.99 7.52L14.99 7.52Q14.90 7.38 14.81 7.24L14.81 7.24L14.81 7.24Q14.72 7.10 14.63 6.97L14.63 6.97L14.63 6.97Q14.59 6.92 14.54 6.87L14.54 6.87L14.54 6.87Q14.49 6.81 14.44 6.77L14.44 6.77L14.44 6.77Q14.38 6.73 14.31 6.71L14.31 6.71L14.31 6.71Q14.25 6.69 14.18 6.71L14.18 6.71L14.18 6.71Q13.99 6.76 14.01 7.08L14.01 7.08L14.01 7.08Q14.01 7.31 14.02 7.52L14.02 7.52L14.02 7.52Q14.02 7.72 14.03 7.90L14.03 7.90L14.03 7.90Q14.05 8.05 14.03 8.19L14.03 8.19L14.03 8.19Q14.01 8.33 14.01 8.47L14.01 8.47L14.01 9.00L14.01 9.00Q14.01 9.17 14.00 9.31L14.00 9.31L14.00 9.31Q13.99 9.45 13.98 9.56ZM18.83 9.29L18.83 9.29L18.83 9.29Q18.83 8.87 18.83 8.46L18.83 8.46L18.83 8.46Q18.83 8.04 18.83 7.62L18.83 7.62L18.83 7.38L18.83 7.38Q18.83 7.20 18.82 7.01L18.82 7.01L18.82 7.01Q18.81 6.82 18.83 6.64L18.83 6.64L18.83 6.64Q18.83 6.43 18.83 6.23L18.83 6.23L18.83 6.23Q18.83 6.03 18.84 5.82L18.84 5.82L18.84 5.82Q18.84 5.58 18.96 5.48L18.96 5.48L18.96 5.48Q19.04 5.41 19.27 5.41L19.27 5.41L19.27 5.41Q19.39 5.41 19.47 5.40L19.47 5.40L19.47 5.40Q19.56 5.40 19.62 5.40L19.62 5.40L19.62 5.40Q19.89 5.39 20.15 5.40L20.15 5.40L20.15 5.40Q20.42 5.41 20.69 5.41L20.69 5.41L20.69 5.41Q20.83 5.40 20.97 5.40L20.97 5.40L20.97 5.40Q21.12 5.39 21.25 5.41L21.25 5.41L21.60 5.43L21.60 5.43Q21.66 5.43 21.71 5.43L21.71 5.43L21.71 5.43Q21.75 5.43 21.79 5.45L21.79 5.45L21.79 5.45Q21.93 5.52 21.92 5.66L21.92 5.66L21.92 5.66Q21.92 5.72 21.88 5.76L21.88 5.76L21.88 5.76Q21.83 5.80 21.78 5.82L21.78 5.82L21.78 5.82Q21.73 5.84 21.68 5.84L21.68 5.84L21.68 5.84Q21.62 5.85 21.58 5.85L21.58 5.85L21.58 5.85Q21.16 5.85 20.75 5.83L20.75 5.83L20.75 5.83Q20.71 5.82 20.65 5.82L20.65 5.82L20.65 5.82Q20.59 5.82 20.51 5.82L20.51 5.82L20.12 5.82L20.12 5.82Q19.96 5.82 19.84 5.83L19.84 5.83L19.84 5.83Q19.71 5.83 19.63 5.83L19.63 5.83L19.63 5.83Q19.52 5.84 19.44 5.86L19.44 5.86L19.44 5.86Q19.37 5.89 19.33 5.94L19.33 5.94L19.33 5.94Q19.28 6.02 19.29 6.15L19.29 6.15L19.29 6.15Q19.29 6.20 19.29 6.24L19.29 6.24L19.29 6.24Q19.29 6.28 19.28 6.32L19.28 6.32L19.28 6.32Q19.27 6.40 19.26 6.49L19.26 6.49L19.26 6.49Q19.26 6.58 19.26 6.69L19.26 6.69L19.26 6.69Q19.26 6.88 19.41 7.01L19.41 7.01L19.41 7.01Q19.54 7.12 19.86 7.10L19.86 7.10L19.86 7.10Q20.00 7.10 20.14 7.08L20.14 7.08L20.14 7.08Q20.28 7.06 20.43 7.07L20.43 7.07L20.43 7.07Q20.49 7.07 20.59 7.07L20.59 7.07L20.59 7.07Q20.69 7.08 20.82 7.07L20.82 7.07L20.82 7.07Q21.10 7.06 21.19 7.16L21.19 7.16L21.19 7.16Q21.23 7.21 21.22 7.32L21.22 7.32L21.22 7.32Q21.20 7.44 21.03 7.47L21.03 7.47L21.03 7.47Q20.87 7.50 20.77 7.50L20.77 7.50L20.77 7.50Q20.65 7.51 20.53 7.50L20.53 7.50L20.53 7.50Q20.41 7.50 20.29 7.51L20.29 7.51L20.29 7.51Q20.14 7.52 19.98 7.51L19.98 7.51L19.98 7.51Q19.82 7.51 19.65 7.49L19.65 7.49L19.65 7.49Q19.63 7.49 19.61 7.49L19.61 7.49L19.61 7.49Q19.58 7.49 19.56 7.49L19.56 7.49L19.55 7.49L19.55 7.49Q19.48 7.47 19.40 7.52L19.40 7.52L19.40 7.52Q19.28 7.59 19.26 7.78L19.26 7.78L19.26 7.78Q19.25 7.96 19.26 8.09L19.26 8.09L19.26 8.09Q19.27 8.16 19.27 8.22L19.27 8.22L19.27 8.22Q19.28 8.29 19.27 8.33L19.27 8.33L19.27 8.33Q19.26 8.44 19.25 8.53L19.25 8.53L19.25 8.53Q19.24 8.63 19.22 8.74L19.22 8.74L19.22 8.74Q19.20 9.00 19.29 9.13L19.29 9.13L19.29 9.13Q19.41 9.28 19.69 9.28L19.69 9.28L19.69 9.28Q19.92 9.28 20.15 9.27L20.15 9.27L20.15 9.27Q20.38 9.26 20.62 9.25L20.62 9.25L20.62 9.25Q20.83 9.24 21.05 9.26L21.05 9.26L21.05 9.26Q21.27 9.28 21.49 9.28L21.49 9.28L21.49 9.28Q21.57 9.28 21.71 9.28L21.71 9.28L21.71 9.28Q21.85 9.28 21.92 9.32L21.92 9.32L21.92 9.32Q21.99 9.36 22.00 9.44L22.00 9.44L22.00 9.44Q22.07 9.69 21.79 9.70L21.79 9.70L21.79 9.70Q21.33 9.72 20.90 9.71L20.90 9.71L20.90 9.71Q20.47 9.71 20.03 9.71L20.03 9.71L20.03 9.71Q20.00 9.71 19.98 9.72L19.98 9.72L19.98 9.72Q19.95 9.72 19.93 9.72L19.93 9.72L19.93 9.72Q19.78 9.72 19.66 9.72L19.66 9.72L19.66 9.72Q19.55 9.72 19.48 9.71L19.48 9.71L19.48 9.71Q19.43 9.71 19.36 9.71L19.36 9.71L19.36 9.71Q19.30 9.71 19.22 9.70L19.22 9.70L19.22 9.70Q19.15 9.69 19.10 9.69L19.10 9.69L19.10 9.69Q19.06 9.68 19.04 9.67L19.04 9.67L19.04 9.67Q18.83 9.61 18.83 9.29ZM26.52 9.08L26.52 9.08L26.52 9.08Q26.40 9.23 26.29 9.34L26.29 9.34L26.29 9.34Q26.19 9.45 26.07 9.53L26.07 9.53L26.07 9.53Q25.96 9.60 25.82 9.66L25.82 9.66L25.82 9.66Q25.68 9.71 25.50 9.73L25.50 9.73L25.50 9.73Q25.41 9.74 25.31 9.74L25.31 9.74L25.31 9.74Q25.22 9.75 25.11 9.73L25.11 9.73L25.11 9.73Q24.96 9.72 24.81 9.72L24.81 9.72L24.81 9.72Q24.67 9.72 24.52 9.69L24.52 9.69L24.52 9.69Q24.19 9.61 23.97 9.46L23.97 9.46L23.97 9.46Q23.75 9.31 23.64 9.07L23.64 9.07L23.64 9.07Q23.49 8.74 23.81 8.73L23.81 8.73L23.81 8.73Q23.86 8.73 23.94 8.81L23.94 8.81L23.94 8.81Q24.01 8.89 24.05 8.93L24.05 8.93L24.05 8.93Q24.19 9.07 24.21 9.08L24.21 9.08L24.22 9.08L24.22 9.09L24.22 9.09Q24.55 9.32 25.11 9.32L25.11 9.32L25.12 9.32L25.12 9.32L25.12 9.32Q25.35 9.32 25.72 9.23L25.72 9.23L25.72 9.23Q26.07 9.14 26.19 8.87L26.19 8.87L26.19 8.87Q26.25 8.70 26.19 8.51L26.19 8.51L26.19 8.50L26.19 8.50Q26.02 8.14 25.53 8.02L25.53 8.02L24.68 7.80L24.68 7.80Q24.51 7.76 24.25 7.63L24.25 7.63L24.25 7.63Q24.12 7.56 24.03 7.51L24.03 7.51L24.03 7.51Q23.93 7.45 23.87 7.40L23.87 7.40L23.87 7.40Q23.59 7.19 23.54 6.99L23.54 6.99L23.54 6.99Q23.54 6.95 23.54 6.89L23.54 6.89L23.54 6.89Q23.54 6.83 23.54 6.74L23.54 6.74L23.54 6.74Q23.54 6.64 23.55 6.55L23.55 6.55L23.55 6.55Q23.56 6.46 23.58 6.36L23.58 6.36L23.58 6.36Q23.62 6.04 23.84 5.80L23.84 5.80L23.84 5.80Q23.95 5.69 24.09 5.62L24.09 5.62L24.09 5.62Q24.24 5.55 24.38 5.49L24.38 5.49L24.38 5.49Q24.57 5.40 24.78 5.40L24.78 5.40L24.78 5.40Q24.99 5.39 25.19 5.40L25.19 5.40L25.19 5.40Q25.86 5.42 26.24 5.87L26.24 5.87L26.24 5.87Q26.41 6.08 26.37 6.22L26.37 6.22L26.32 6.26L26.32 6.26Q26.21 6.32 26.06 6.19L26.06 6.19L26.06 6.19Q26.02 6.16 25.98 6.13L25.98 6.13L25.98 6.13Q25.95 6.09 25.92 6.06L25.92 6.06L25.92 6.06Q25.88 6.02 25.83 5.98L25.83 5.98L25.83 5.98Q25.77 5.95 25.70 5.91L25.70 5.91L25.69 5.90L25.67 5.90L25.67 5.90Q25.42 5.82 25.15 5.81L25.15 5.81L25.15 5.81Q24.89 5.80 24.61 5.86L24.61 5.86L24.61 5.86Q24.27 5.93 24.10 6.14L24.10 6.14L24.10 6.14Q23.92 6.34 23.92 6.67L23.92 6.67L23.92 6.69L23.93 6.70L23.93 6.70Q23.95 7.12 24.58 7.30L24.58 7.30L24.78 7.36L25.29 7.53L25.29 7.53Q25.40 7.57 25.52 7.62L25.52 7.62L25.52 7.62Q25.63 7.67 25.76 7.72L25.76 7.72L25.76 7.72Q25.96 7.81 26.12 7.90L26.12 7.90L26.12 7.90Q26.28 7.98 26.42 8.07L26.42 8.07L26.42 8.07Q26.52 8.13 26.57 8.22L26.57 8.22L26.57 8.22Q26.62 8.31 26.64 8.41L26.64 8.41L26.64 8.41Q26.65 8.51 26.65 8.62L26.65 8.62L26.65 8.62Q26.65 8.73 26.63 8.82L26.63 8.82L26.63 8.82Q26.61 8.89 26.58 8.96L26.58 8.96L26.58 8.96Q26.55 9.03 26.52 9.08ZM31.30 9.08L31.30 9.08L31.30 9.08Q31.19 9.23 31.08 9.34L31.08 9.34L31.08 9.34Q30.97 9.45 30.86 9.53L30.86 9.53L30.86 9.53Q30.74 9.60 30.60 9.66L30.60 9.66L30.60 9.66Q30.46 9.71 30.28 9.73L30.28 9.73L30.28 9.73Q30.19 9.74 30.10 9.74L30.10 9.74L30.10 9.74Q30.00 9.75 29.89 9.73L29.89 9.73L29.89 9.73Q29.74 9.72 29.60 9.72L29.60 9.72L29.60 9.72Q29.46 9.72 29.31 9.69L29.31 9.69L29.31 9.69Q28.98 9.61 28.76 9.46L28.76 9.46L28.76 9.46Q28.54 9.31 28.42 9.07L28.42 9.07L28.42 9.07Q28.27 8.74 28.59 8.73L28.59 8.73L28.59 8.73Q28.65 8.73 28.72 8.81L28.72 8.81L28.72 8.81Q28.79 8.89 28.83 8.93L28.83 8.93L28.83 8.93Q28.98 9.07 29.00 9.08L29.00 9.08L29.00 9.08L29.00 9.09L29.00 9.09Q29.34 9.32 29.89 9.32L29.89 9.32L29.90 9.32L29.91 9.32L29.91 9.32Q30.14 9.32 30.50 9.23L30.50 9.23L30.50 9.23Q30.86 9.14 30.97 8.87L30.97 8.87L30.97 8.87Q31.04 8.70 30.97 8.51L30.97 8.51L30.97 8.50L30.97 8.50Q30.80 8.14 30.31 8.02L30.31 8.02L29.47 7.80L29.47 7.80Q29.29 7.76 29.04 7.63L29.04 7.63L29.04 7.63Q28.91 7.56 28.81 7.51L28.81 7.51L28.81 7.51Q28.72 7.45 28.66 7.40L28.66 7.40L28.66 7.40Q28.38 7.19 28.33 6.99L28.33 6.99L28.33 6.99Q28.32 6.95 28.32 6.89L28.32 6.89L28.32 6.89Q28.32 6.83 28.32 6.74L28.32 6.74L28.32 6.74Q28.32 6.64 28.33 6.55L28.33 6.55L28.33 6.55Q28.35 6.46 28.36 6.36L28.36 6.36L28.36 6.36Q28.40 6.04 28.63 5.80L28.63 5.80L28.63 5.80Q28.73 5.69 28.88 5.62L28.88 5.62L28.88 5.62Q29.03 5.55 29.16 5.49L29.16 5.49L29.16 5.49Q29.35 5.40 29.56 5.40L29.56 5.40L29.56 5.40Q29.77 5.39 29.98 5.40L29.98 5.40L29.98 5.40Q30.65 5.42 31.02 5.87L31.02 5.87L31.02 5.87Q31.19 6.08 31.15 6.22L31.15 6.22L31.10 6.26L31.10 6.26Q30.99 6.32 30.84 6.19L30.84 6.19L30.84 6.19Q30.80 6.16 30.77 6.13L30.77 6.13L30.77 6.13Q30.73 6.09 30.70 6.06L30.70 6.06L30.70 6.06Q30.67 6.02 30.61 5.98L30.61 5.98L30.61 5.98Q30.56 5.95 30.49 5.91L30.49 5.91L30.47 5.90L30.45 5.90L30.45 5.90Q30.20 5.82 29.94 5.81L29.94 5.81L29.94 5.81Q29.67 5.80 29.39 5.86L29.39 5.86L29.39 5.86Q29.06 5.93 28.88 6.14L28.88 6.14L28.88 6.14Q28.70 6.34 28.70 6.67L28.70 6.67L28.70 6.69L28.71 6.70L28.71 6.70Q28.74 7.12 29.37 7.30L29.37 7.30L29.57 7.36L30.07 7.53L30.07 7.53Q30.19 7.57 30.30 7.62L30.30 7.62L30.30 7.62Q30.42 7.67 30.55 7.72L30.55 7.72L30.55 7.72Q30.74 7.81 30.91 7.90L30.91 7.90L30.91 7.90Q31.07 7.98 31.21 8.07L31.21 8.07L31.21 8.07Q31.30 8.13 31.35 8.22L31.35 8.22L31.35 8.22Q31.40 8.31 31.42 8.41L31.42 8.41L31.42 8.41Q31.44 8.51 31.44 8.62L31.44 8.62L31.44 8.62Q31.43 8.73 31.41 8.82L31.41 8.82L31.41 8.82Q31.40 8.89 31.37 8.96L31.37 8.96L31.37 8.96Q31.34 9.03 31.30 9.08ZM39.60 9.47L39.60 9.47L39.60 9.47Q39.60 9.65 39.46 9.69L39.46 9.69L39.46 9.69Q39.33 9.75 39.24 9.61L39.24 9.61L39.24 9.61Q39.19 9.54 39.16 9.49L39.16 9.49L39.16 9.49Q39.13 9.43 39.11 9.39L39.11 9.39L39.11 9.39Q39.01 9.18 38.94 9.03L38.94 9.03L38.94 9.03Q38.86 8.87 38.79 8.78L38.79 8.78L38.79 8.78Q38.62 8.55 38.42 8.49L38.42 8.49L38.42 8.49Q38.25 8.44 37.88 8.48L37.88 8.48L37.88 8.48Q37.66 8.50 37.46 8.51L37.46 8.51L37.46 8.51Q37.27 8.52 37.09 8.50L37.09 8.50L37.09 8.50Q36.70 8.48 36.50 8.76L36.50 8.76L36.49 8.78L36.48 8.79L36.48 8.79Q36.42 8.93 36.37 9.06L36.37 9.06L36.37 9.06Q36.33 9.19 36.26 9.32L36.26 9.32L36.12 9.54L36.12 9.54Q36.03 9.69 35.92 9.70L35.92 9.70L35.92 9.70Q35.88 9.72 35.79 9.65L35.79 9.65L35.79 9.65Q35.75 9.60 35.73 9.55L35.73 9.55L35.73 9.55Q35.72 9.49 35.73 9.43L35.73 9.43L35.73 9.43Q35.75 9.37 35.77 9.30L35.77 9.30L35.77 9.30Q35.79 9.24 35.81 9.19L35.81 9.19L35.98 8.85L35.98 8.85Q36.22 8.35 36.43 7.85L36.43 7.85L36.43 7.85Q36.63 7.34 36.87 6.83L36.87 6.83L36.87 6.83Q36.91 6.74 36.94 6.66L36.94 6.66L36.94 6.66Q36.97 6.58 37.00 6.51L37.00 6.51L37.00 6.51Q37.08 6.32 37.15 6.14L37.15 6.14L37.15 6.14Q37.23 5.95 37.32 5.76L37.32 5.76L37.43 5.61L37.43 5.61Q37.50 5.48 37.57 5.48L37.57 5.48L37.57 5.48Q37.64 5.46 37.75 5.59L37.75 5.59L37.75 5.59Q37.86 5.73 37.97 5.91L37.97 5.91L37.97 5.91Q38.08 6.10 38.15 6.26L38.15 6.26L38.15 6.26Q38.39 6.77 38.60 7.28L38.60 7.28L38.60 7.28Q38.81 7.79 39.05 8.28L39.05 8.28L39.05 8.28Q39.12 8.43 39.19 8.58L39.19 8.58L39.19 8.58Q39.27 8.74 39.35 8.88L39.35 8.88L39.35 8.88Q39.39 8.98 39.43 9.08L39.43 9.08L39.43 9.08Q39.48 9.17 39.52 9.27L39.52 9.27L39.52 9.27Q39.55 9.34 39.57 9.39L39.57 9.39L39.57 9.39Q39.59 9.44 39.60 9.47ZM38.25 7.56L38.25 7.56L38.25 7.56Q38.18 7.40 38.11 7.22L38.11 7.22L38.11 7.22Q38.05 7.05 37.96 6.88L37.96 6.88L37.96 6.88Q37.80 6.57 37.60 6.58L37.60 6.58L37.60 6.58Q37.52 6.58 37.46 6.62L37.46 6.62L37.46 6.62Q37.41 6.67 37.37 6.72L37.37 6.72L37.37 6.72Q37.32 6.78 37.29 6.85L37.29 6.85L37.29 6.85Q37.26 6.92 37.24 6.98L37.24 6.98L37.24 6.98Q37.16 7.18 37.09 7.40L37.09 7.40L37.09 7.40Q37.02 7.62 36.96 7.83L36.96 7.83L36.96 7.83Q36.91 7.98 36.98 8.05L36.98 8.05L36.98 8.05Q37.02 8.12 37.19 8.13L37.19 8.13L37.19 8.13Q37.34 8.14 37.45 8.15L37.45 8.15L37.45 8.15Q37.57 8.15 37.65 8.14L37.65 8.14L37.65 8.14Q37.80 8.14 38.04 8.10L38.04 8.10L38.04 8.10Q38.29 8.06 38.34 7.88L38.34 7.88L38.34 7.88Q38.36 7.77 38.32 7.69L38.32 7.69L38.32 7.69Q38.30 7.66 38.28 7.63L38.28 7.63L38.28 7.63Q38.25 7.59 38.25 7.56ZM41.71 7.99L41.71 7.99L41.71 7.99Q41.71 8.16 41.71 8.33L41.71 8.33L41.71 8.33Q41.70 8.50 41.71 8.67L41.71 8.67L41.71 8.67Q41.71 9.21 41.71 9.49L41.71 9.49L41.71 9.49Q41.71 9.61 41.60 9.67L41.60 9.67L41.60 9.67Q41.49 9.73 41.41 9.68L41.41 9.68L41.41 9.68Q41.33 9.65 41.32 9.52L41.32 9.52L41.32 9.52Q41.30 9.30 41.30 9.08L41.30 9.08L41.30 9.08Q41.29 8.87 41.29 8.64L41.29 8.64L41.29 8.64Q41.30 8.37 41.30 8.09L41.30 8.09L41.30 8.09Q41.30 7.82 41.30 7.53L41.30 7.53L41.30 7.53Q41.30 7.37 41.31 7.20L41.31 7.20L41.31 7.20Q41.31 7.03 41.30 6.87L41.30 6.87L41.30 6.87Q41.30 6.68 41.30 6.47L41.30 6.47L41.30 6.47Q41.30 6.26 41.31 6.03L41.31 6.03L41.31 6.03Q41.32 5.99 41.32 5.93L41.32 5.93L41.32 5.93Q41.32 5.87 41.32 5.78L41.32 5.78L41.32 5.78Q41.32 5.63 41.32 5.61L41.32 5.61L41.32 5.61Q41.33 5.55 41.44 5.48L41.44 5.48L41.44 5.48Q41.53 5.42 41.80 5.41L41.80 5.41L41.80 5.41Q41.94 5.40 42.04 5.40L42.04 5.40L42.04 5.40Q42.14 5.39 42.21 5.39L42.21 5.39L42.21 5.39Q42.39 5.39 42.58 5.40L42.58 5.40L42.58 5.40Q42.78 5.41 42.98 5.42L42.98 5.42L42.98 5.42Q43.09 5.43 43.22 5.44L43.22 5.44L43.22 5.44Q43.35 5.45 43.51 5.48L43.51 5.48L43.51 5.48Q43.83 5.52 44.00 5.66L44.00 5.66L44.01 5.66L44.01 5.66Q44.24 5.86 44.36 6.09L44.36 6.09L44.36 6.09Q44.48 6.32 44.47 6.61L44.47 6.61L44.47 6.61Q44.46 6.81 44.37 6.96L44.37 6.96L44.37 6.96Q44.28 7.10 44.13 7.21L44.13 7.21L44.13 7.21Q43.83 7.42 43.48 7.49L43.48 7.49L43.48 7.49Q43.51 7.48 43.39 7.51L43.39 7.51L43.39 7.51Q43.18 7.54 42.97 7.53L42.97 7.53L42.97 7.53Q42.77 7.52 42.56 7.55L42.56 7.55L42.56 7.55Q42.49 7.55 42.40 7.56L42.40 7.56L42.40 7.56Q42.31 7.56 42.18 7.55L42.18 7.55L42.18 7.55Q41.94 7.54 41.83 7.62L41.83 7.62L41.83 7.62Q41.69 7.72 41.71 7.99ZM42.78 7.12L42.84 7.12L42.84 7.12Q43.11 7.12 43.36 7.10L43.36 7.10L43.36 7.10Q43.61 7.07 43.85 6.89L43.85 6.89L43.85 6.89Q44.11 6.70 44.06 6.44L44.06 6.44L44.06 6.44Q44.00 6.18 43.77 6.02L43.77 6.02L43.77 6.02Q43.72 5.97 43.64 5.94L43.64 5.94L43.64 5.94Q43.57 5.91 43.50 5.89L43.50 5.89L43.50 5.89Q43.15 5.81 42.85 5.85L42.85 5.85L42.85 5.85Q42.70 5.87 42.54 5.88L42.54 5.88L42.54 5.88Q42.38 5.89 42.22 5.89L42.22 5.89L42.22 5.89Q42.14 5.89 42.08 5.88L42.08 5.88L42.08 5.88Q42.01 5.88 41.98 5.87L41.98 5.87L41.98 5.87Q41.94 5.86 41.90 5.87L41.90 5.87L41.90 5.87Q41.73 5.91 41.72 6.17L41.72 6.17L41.72 6.17Q41.71 6.23 41.71 6.32L41.71 6.32L41.71 6.32Q41.71 6.41 41.71 6.52L41.71 6.52L41.71 6.52Q41.71 6.56 41.71 6.61L41.71 6.61L41.71 6.61Q41.71 6.66 41.71 6.73L41.71 6.73L41.71 6.73Q41.73 6.97 41.86 7.08L41.86 7.08L41.86 7.08Q41.99 7.19 42.31 7.18L42.31 7.18L42.31 7.18Q42.43 7.17 42.54 7.16L42.54 7.16L42.54 7.16Q42.66 7.14 42.78 7.12L42.78 7.12ZM46.27 9.70L46.27 9.70L46.27 9.70Q46.05 9.67 46.05 9.44L46.05 9.44L46.05 9.44Q46.04 9.07 46.04 8.72L46.04 8.72L46.04 8.72Q46.04 8.36 46.04 7.99L46.04 7.99L46.04 7.99Q46.04 7.79 46.06 7.58L46.06 7.58L46.06 7.58Q46.07 7.43 46.07 7.30L46.07 7.30L46.07 7.30Q46.07 7.17 46.07 7.06L46.07 7.06L46.07 7.06Q46.06 6.99 46.05 6.90L46.05 6.90L46.05 6.90Q46.05 6.80 46.04 6.67L46.04 6.67L46.04 6.67Q46.04 6.60 46.04 6.51L46.04 6.51L46.04 6.51Q46.05 6.41 46.05 6.28L46.05 6.28L46.05 6.28Q46.06 6.19 46.06 6.11L46.06 6.11L46.06 6.11Q46.07 6.04 46.07 5.99L46.07 5.99L46.07 5.84L46.07 5.83L46.07 5.78L46.07 5.78Q46.05 5.61 46.07 5.54L46.07 5.54L46.07 5.54Q46.09 5.49 46.16 5.44L46.16 5.44L46.16 5.44Q46.43 5.30 46.49 5.61L46.49 5.61L46.49 5.61Q46.55 5.84 46.56 6.07L46.56 6.07L46.56 6.07Q46.57 6.29 46.55 6.51L46.55 6.51L46.55 6.51L46.55 6.51Q46.53 6.73 46.54 6.94L46.54 6.94L46.54 6.94Q46.55 7.15 46.53 7.36L46.53 7.36L46.53 7.36Q46.50 7.55 46.49 7.68L46.49 7.68L46.49 7.68Q46.48 7.82 46.47 7.92L46.47 7.92L46.47 7.92Q46.46 8.05 46.46 8.20L46.46 8.20L46.46 8.20Q46.46 8.35 46.46 8.51L46.46 8.51L46.46 8.51Q46.47 8.54 46.47 8.59L46.47 8.59L46.47 8.59Q46.47 8.63 46.47 8.70L46.47 8.70L46.47 8.70Q46.47 8.80 46.47 8.91L46.47 8.91L46.47 8.91Q46.47 9.02 46.48 9.13L46.48 9.13L46.48 9.13Q46.48 9.20 46.48 9.27L46.48 9.27L46.48 9.27Q46.48 9.33 46.48 9.40L46.48 9.40L46.48 9.40Q46.48 9.54 46.47 9.55L46.47 9.55L46.47 9.55Q46.44 9.68 46.27 9.70Z"></path></g><!----><!----></svg>